<mxfile host="app.diagrams.net" modified="2023-09-27T11:15:16.502Z" agent="Mozilla/5.0 (Windows NT 10.0; Win64; x64) AppleWebKit/537.36 (KHTML, like Gecko) Chrome/117.0.0.0 Safari/537.36" etag="xhHeZ7B793yOM2EvBUZh" version="21.8.2" type="device">
  <diagram id="R2lEEEUBdFMjLlhIrx00" name="Page-1">
    <mxGraphModel dx="880" dy="1546" grid="1" gridSize="10" guides="1" tooltips="1" connect="1" arrows="1" fold="1" page="1" pageScale="1" pageWidth="850" pageHeight="1100" math="0" shadow="0" extFonts="Permanent Marker^https://fonts.googleapis.com/css?family=Permanent+Marker">
      <root>
        <mxCell id="0" />
        <mxCell id="1" parent="0" />
        <mxCell id="NXCyin19oetwv0ha5H-7-8" value="1" style="rounded=0;whiteSpace=wrap;html=1;" vertex="1" parent="1">
          <mxGeometry x="160" y="10" width="20" height="20" as="geometry" />
        </mxCell>
        <mxCell id="NXCyin19oetwv0ha5H-7-9" style="edgeStyle=orthogonalEdgeStyle;rounded=0;orthogonalLoop=1;jettySize=auto;html=1;exitX=0.5;exitY=1;exitDx=0;exitDy=0;entryX=0.75;entryY=1;entryDx=0;entryDy=0;" edge="1" parent="1" source="NXCyin19oetwv0ha5H-7-8" target="NXCyin19oetwv0ha5H-7-8">
          <mxGeometry relative="1" as="geometry" />
        </mxCell>
        <mxCell id="NXCyin19oetwv0ha5H-7-10" value="2" style="rounded=0;whiteSpace=wrap;html=1;" vertex="1" parent="1">
          <mxGeometry x="150" y="180" width="20" height="20" as="geometry" />
        </mxCell>
        <mxCell id="NXCyin19oetwv0ha5H-7-18" value="Libro" style="rounded=0;whiteSpace=wrap;html=1;align=center;fontStyle=1" vertex="1" parent="1">
          <mxGeometry x="190" y="40" width="90" height="30" as="geometry" />
        </mxCell>
        <mxCell id="NXCyin19oetwv0ha5H-7-19" value="Autor" style="rounded=0;whiteSpace=wrap;html=1;align=center;fontStyle=1" vertex="1" parent="1">
          <mxGeometry x="470" y="40" width="90" height="30" as="geometry" />
        </mxCell>
        <mxCell id="NXCyin19oetwv0ha5H-7-41" style="edgeStyle=orthogonalEdgeStyle;rounded=0;orthogonalLoop=1;jettySize=auto;html=1;exitX=1;exitY=0.5;exitDx=0;exitDy=0;entryX=0;entryY=0.5;entryDx=0;entryDy=0;" edge="1" parent="1" target="NXCyin19oetwv0ha5H-7-19">
          <mxGeometry relative="1" as="geometry">
            <mxPoint x="420" y="55" as="sourcePoint" />
          </mxGeometry>
        </mxCell>
        <mxCell id="NXCyin19oetwv0ha5H-7-20" value="Escrito por" style="rounded=0;whiteSpace=wrap;html=1;align=center;fontStyle=1;shape=rhombus;perimeter=rhombusPerimeter;" vertex="1" parent="1">
          <mxGeometry x="330" y="10" width="90" height="90" as="geometry" />
        </mxCell>
        <mxCell id="NXCyin19oetwv0ha5H-7-28" value="1,n" style="text;html=1;strokeColor=none;fillColor=none;align=center;verticalAlign=middle;whiteSpace=wrap;rounded=0;" vertex="1" parent="1">
          <mxGeometry x="270" y="60" width="60" height="30" as="geometry" />
        </mxCell>
        <mxCell id="NXCyin19oetwv0ha5H-7-29" value="1,m" style="text;html=1;strokeColor=none;fillColor=none;align=center;verticalAlign=middle;whiteSpace=wrap;rounded=0;" vertex="1" parent="1">
          <mxGeometry x="405" y="60" width="60" height="30" as="geometry" />
        </mxCell>
        <mxCell id="NXCyin19oetwv0ha5H-7-30" value="N,M" style="text;html=1;strokeColor=none;fillColor=none;align=center;verticalAlign=middle;whiteSpace=wrap;rounded=0;" vertex="1" parent="1">
          <mxGeometry x="345" y="-30" width="60" height="30" as="geometry" />
        </mxCell>
        <mxCell id="NXCyin19oetwv0ha5H-7-51" style="edgeStyle=orthogonalEdgeStyle;rounded=0;orthogonalLoop=1;jettySize=auto;html=1;exitX=1;exitY=0.5;exitDx=0;exitDy=0;entryX=0;entryY=0.5;entryDx=0;entryDy=0;" edge="1" parent="1" source="NXCyin19oetwv0ha5H-7-31" target="NXCyin19oetwv0ha5H-7-33">
          <mxGeometry relative="1" as="geometry" />
        </mxCell>
        <mxCell id="NXCyin19oetwv0ha5H-7-31" value="Revista" style="rounded=0;whiteSpace=wrap;html=1;align=center;fontStyle=1" vertex="1" parent="1">
          <mxGeometry x="180" y="230" width="90" height="30" as="geometry" />
        </mxCell>
        <mxCell id="NXCyin19oetwv0ha5H-7-32" value="Editorial" style="rounded=0;whiteSpace=wrap;html=1;align=center;fontStyle=1" vertex="1" parent="1">
          <mxGeometry x="460" y="230" width="90" height="30" as="geometry" />
        </mxCell>
        <mxCell id="NXCyin19oetwv0ha5H-7-52" style="edgeStyle=orthogonalEdgeStyle;rounded=0;orthogonalLoop=1;jettySize=auto;html=1;exitX=1;exitY=0.5;exitDx=0;exitDy=0;entryX=0;entryY=0.5;entryDx=0;entryDy=0;" edge="1" parent="1" source="NXCyin19oetwv0ha5H-7-33" target="NXCyin19oetwv0ha5H-7-32">
          <mxGeometry relative="1" as="geometry" />
        </mxCell>
        <mxCell id="NXCyin19oetwv0ha5H-7-33" value="Editar" style="rounded=0;whiteSpace=wrap;html=1;align=center;fontStyle=1;shape=rhombus;perimeter=rhombusPerimeter;" vertex="1" parent="1">
          <mxGeometry x="320" y="200" width="90" height="90" as="geometry" />
        </mxCell>
        <mxCell id="NXCyin19oetwv0ha5H-7-36" value="1,n" style="text;html=1;strokeColor=none;fillColor=none;align=center;verticalAlign=middle;whiteSpace=wrap;rounded=0;" vertex="1" parent="1">
          <mxGeometry x="270" y="200" width="60" height="30" as="geometry" />
        </mxCell>
        <mxCell id="NXCyin19oetwv0ha5H-7-37" value="1,1" style="text;html=1;strokeColor=none;fillColor=none;align=center;verticalAlign=middle;whiteSpace=wrap;rounded=0;" vertex="1" parent="1">
          <mxGeometry x="400" y="200" width="60" height="30" as="geometry" />
        </mxCell>
        <mxCell id="NXCyin19oetwv0ha5H-7-38" value="n,1" style="text;html=1;strokeColor=none;fillColor=none;align=center;verticalAlign=middle;whiteSpace=wrap;rounded=0;" vertex="1" parent="1">
          <mxGeometry x="335" y="170" width="60" height="30" as="geometry" />
        </mxCell>
        <mxCell id="NXCyin19oetwv0ha5H-7-39" value="" style="endArrow=classic;html=1;rounded=0;exitX=1;exitY=0.5;exitDx=0;exitDy=0;entryX=0;entryY=0.5;entryDx=0;entryDy=0;" edge="1" parent="1" source="NXCyin19oetwv0ha5H-7-18">
          <mxGeometry width="50" height="50" relative="1" as="geometry">
            <mxPoint x="420" y="270" as="sourcePoint" />
            <mxPoint x="330" y="55" as="targetPoint" />
          </mxGeometry>
        </mxCell>
        <mxCell id="NXCyin19oetwv0ha5H-7-42" value="3" style="rounded=0;whiteSpace=wrap;html=1;" vertex="1" parent="1">
          <mxGeometry x="150" y="320" width="20" height="20" as="geometry" />
        </mxCell>
        <mxCell id="NXCyin19oetwv0ha5H-7-53" style="edgeStyle=orthogonalEdgeStyle;rounded=0;orthogonalLoop=1;jettySize=auto;html=1;exitX=1;exitY=0.5;exitDx=0;exitDy=0;entryX=0;entryY=0.5;entryDx=0;entryDy=0;" edge="1" parent="1" source="NXCyin19oetwv0ha5H-7-43" target="NXCyin19oetwv0ha5H-7-45">
          <mxGeometry relative="1" as="geometry" />
        </mxCell>
        <mxCell id="NXCyin19oetwv0ha5H-7-43" value="Autobus" style="rounded=0;whiteSpace=wrap;html=1;align=center;fontStyle=1" vertex="1" parent="1">
          <mxGeometry x="180" y="370" width="90" height="30" as="geometry" />
        </mxCell>
        <mxCell id="NXCyin19oetwv0ha5H-7-44" value="Conductor" style="rounded=0;whiteSpace=wrap;html=1;align=center;fontStyle=1" vertex="1" parent="1">
          <mxGeometry x="460" y="370" width="90" height="30" as="geometry" />
        </mxCell>
        <mxCell id="NXCyin19oetwv0ha5H-7-54" style="edgeStyle=orthogonalEdgeStyle;rounded=0;orthogonalLoop=1;jettySize=auto;html=1;exitX=1;exitY=0.5;exitDx=0;exitDy=0;entryX=0;entryY=0.5;entryDx=0;entryDy=0;entryPerimeter=0;" edge="1" parent="1" source="NXCyin19oetwv0ha5H-7-45" target="NXCyin19oetwv0ha5H-7-44">
          <mxGeometry relative="1" as="geometry" />
        </mxCell>
        <mxCell id="NXCyin19oetwv0ha5H-7-45" value="Conducir" style="rounded=0;whiteSpace=wrap;html=1;align=center;fontStyle=1;shape=rhombus;perimeter=rhombusPerimeter;" vertex="1" parent="1">
          <mxGeometry x="320" y="340" width="90" height="90" as="geometry" />
        </mxCell>
        <mxCell id="NXCyin19oetwv0ha5H-7-48" value="1,n" style="text;html=1;strokeColor=none;fillColor=none;align=center;verticalAlign=middle;whiteSpace=wrap;rounded=0;" vertex="1" parent="1">
          <mxGeometry x="270" y="340" width="60" height="30" as="geometry" />
        </mxCell>
        <mxCell id="NXCyin19oetwv0ha5H-7-49" value="1,m" style="text;html=1;strokeColor=none;fillColor=none;align=center;verticalAlign=middle;whiteSpace=wrap;rounded=0;" vertex="1" parent="1">
          <mxGeometry x="400" y="340" width="60" height="30" as="geometry" />
        </mxCell>
        <mxCell id="NXCyin19oetwv0ha5H-7-50" value="n,m" style="text;html=1;strokeColor=none;fillColor=none;align=center;verticalAlign=middle;whiteSpace=wrap;rounded=0;" vertex="1" parent="1">
          <mxGeometry x="335" y="310" width="60" height="30" as="geometry" />
        </mxCell>
        <mxCell id="NXCyin19oetwv0ha5H-7-55" value="4" style="rounded=0;whiteSpace=wrap;html=1;" vertex="1" parent="1">
          <mxGeometry x="150" y="440" width="20" height="20" as="geometry" />
        </mxCell>
        <mxCell id="NXCyin19oetwv0ha5H-7-56" style="edgeStyle=orthogonalEdgeStyle;rounded=0;orthogonalLoop=1;jettySize=auto;html=1;exitX=1;exitY=0.5;exitDx=0;exitDy=0;entryX=0;entryY=0.5;entryDx=0;entryDy=0;" edge="1" parent="1" source="NXCyin19oetwv0ha5H-7-57" target="NXCyin19oetwv0ha5H-7-60">
          <mxGeometry relative="1" as="geometry" />
        </mxCell>
        <mxCell id="NXCyin19oetwv0ha5H-7-57" value="Salas de cine" style="rounded=0;whiteSpace=wrap;html=1;align=center;fontStyle=1" vertex="1" parent="1">
          <mxGeometry x="180" y="490" width="90" height="30" as="geometry" />
        </mxCell>
        <mxCell id="NXCyin19oetwv0ha5H-7-58" value="Cine" style="rounded=0;whiteSpace=wrap;html=1;align=center;fontStyle=1" vertex="1" parent="1">
          <mxGeometry x="460" y="490" width="90" height="30" as="geometry" />
        </mxCell>
        <mxCell id="NXCyin19oetwv0ha5H-7-59" style="edgeStyle=orthogonalEdgeStyle;rounded=0;orthogonalLoop=1;jettySize=auto;html=1;exitX=1;exitY=0.5;exitDx=0;exitDy=0;entryX=0;entryY=0.5;entryDx=0;entryDy=0;entryPerimeter=0;" edge="1" parent="1" source="NXCyin19oetwv0ha5H-7-60" target="NXCyin19oetwv0ha5H-7-58">
          <mxGeometry relative="1" as="geometry" />
        </mxCell>
        <mxCell id="NXCyin19oetwv0ha5H-7-60" value="Tener" style="rounded=0;whiteSpace=wrap;html=1;align=center;fontStyle=1;shape=rhombus;perimeter=rhombusPerimeter;" vertex="1" parent="1">
          <mxGeometry x="320" y="460" width="90" height="90" as="geometry" />
        </mxCell>
        <mxCell id="NXCyin19oetwv0ha5H-7-61" value="1,1" style="text;html=1;strokeColor=none;fillColor=none;align=center;verticalAlign=middle;whiteSpace=wrap;rounded=0;" vertex="1" parent="1">
          <mxGeometry x="270" y="460" width="60" height="30" as="geometry" />
        </mxCell>
        <mxCell id="NXCyin19oetwv0ha5H-7-62" value="1,m" style="text;html=1;strokeColor=none;fillColor=none;align=center;verticalAlign=middle;whiteSpace=wrap;rounded=0;" vertex="1" parent="1">
          <mxGeometry x="400" y="460" width="60" height="30" as="geometry" />
        </mxCell>
        <mxCell id="NXCyin19oetwv0ha5H-7-63" value="1,m" style="text;html=1;strokeColor=none;fillColor=none;align=center;verticalAlign=middle;whiteSpace=wrap;rounded=0;" vertex="1" parent="1">
          <mxGeometry x="335" y="430" width="60" height="30" as="geometry" />
        </mxCell>
        <mxCell id="NXCyin19oetwv0ha5H-7-65" value="5" style="rounded=0;whiteSpace=wrap;html=1;" vertex="1" parent="1">
          <mxGeometry x="150" y="570" width="20" height="20" as="geometry" />
        </mxCell>
        <mxCell id="NXCyin19oetwv0ha5H-7-66" style="edgeStyle=orthogonalEdgeStyle;rounded=0;orthogonalLoop=1;jettySize=auto;html=1;exitX=1;exitY=0.5;exitDx=0;exitDy=0;entryX=0;entryY=0.5;entryDx=0;entryDy=0;" edge="1" parent="1" source="NXCyin19oetwv0ha5H-7-67" target="NXCyin19oetwv0ha5H-7-70">
          <mxGeometry relative="1" as="geometry" />
        </mxCell>
        <mxCell id="NXCyin19oetwv0ha5H-7-67" value="proyecciones" style="rounded=0;whiteSpace=wrap;html=1;align=center;fontStyle=1" vertex="1" parent="1">
          <mxGeometry x="180" y="620" width="90" height="30" as="geometry" />
        </mxCell>
        <mxCell id="NXCyin19oetwv0ha5H-7-68" value="Sala de cine" style="rounded=0;whiteSpace=wrap;html=1;align=center;fontStyle=1" vertex="1" parent="1">
          <mxGeometry x="460" y="620" width="90" height="30" as="geometry" />
        </mxCell>
        <mxCell id="NXCyin19oetwv0ha5H-7-69" style="edgeStyle=orthogonalEdgeStyle;rounded=0;orthogonalLoop=1;jettySize=auto;html=1;exitX=1;exitY=0.5;exitDx=0;exitDy=0;entryX=0;entryY=0.5;entryDx=0;entryDy=0;entryPerimeter=0;" edge="1" parent="1" source="NXCyin19oetwv0ha5H-7-70" target="NXCyin19oetwv0ha5H-7-68">
          <mxGeometry relative="1" as="geometry" />
        </mxCell>
        <mxCell id="NXCyin19oetwv0ha5H-7-70" value="Realizar" style="rounded=0;whiteSpace=wrap;html=1;align=center;fontStyle=1;shape=rhombus;perimeter=rhombusPerimeter;" vertex="1" parent="1">
          <mxGeometry x="320" y="590" width="90" height="90" as="geometry" />
        </mxCell>
        <mxCell id="NXCyin19oetwv0ha5H-7-71" value="1,1" style="text;html=1;strokeColor=none;fillColor=none;align=center;verticalAlign=middle;whiteSpace=wrap;rounded=0;" vertex="1" parent="1">
          <mxGeometry x="270" y="590" width="60" height="30" as="geometry" />
        </mxCell>
        <mxCell id="NXCyin19oetwv0ha5H-7-72" value="1,m" style="text;html=1;strokeColor=none;fillColor=none;align=center;verticalAlign=middle;whiteSpace=wrap;rounded=0;" vertex="1" parent="1">
          <mxGeometry x="400" y="590" width="60" height="30" as="geometry" />
        </mxCell>
        <mxCell id="NXCyin19oetwv0ha5H-7-73" value="1,m" style="text;html=1;strokeColor=none;fillColor=none;align=center;verticalAlign=middle;whiteSpace=wrap;rounded=0;" vertex="1" parent="1">
          <mxGeometry x="335" y="560" width="60" height="30" as="geometry" />
        </mxCell>
        <mxCell id="NXCyin19oetwv0ha5H-7-74" value="6" style="rounded=0;whiteSpace=wrap;html=1;" vertex="1" parent="1">
          <mxGeometry x="150" y="700" width="20" height="20" as="geometry" />
        </mxCell>
        <mxCell id="NXCyin19oetwv0ha5H-7-75" style="edgeStyle=orthogonalEdgeStyle;rounded=0;orthogonalLoop=1;jettySize=auto;html=1;exitX=1;exitY=0.5;exitDx=0;exitDy=0;entryX=0;entryY=0.5;entryDx=0;entryDy=0;" edge="1" parent="1" source="NXCyin19oetwv0ha5H-7-76" target="NXCyin19oetwv0ha5H-7-79">
          <mxGeometry relative="1" as="geometry" />
        </mxCell>
        <mxCell id="NXCyin19oetwv0ha5H-7-76" value="ingredientes" style="rounded=0;whiteSpace=wrap;html=1;align=center;fontStyle=1" vertex="1" parent="1">
          <mxGeometry x="180" y="750" width="90" height="30" as="geometry" />
        </mxCell>
        <mxCell id="NXCyin19oetwv0ha5H-7-77" value="pizza" style="rounded=0;whiteSpace=wrap;html=1;align=center;fontStyle=1" vertex="1" parent="1">
          <mxGeometry x="460" y="750" width="90" height="30" as="geometry" />
        </mxCell>
        <mxCell id="NXCyin19oetwv0ha5H-7-78" style="edgeStyle=orthogonalEdgeStyle;rounded=0;orthogonalLoop=1;jettySize=auto;html=1;exitX=1;exitY=0.5;exitDx=0;exitDy=0;entryX=0;entryY=0.5;entryDx=0;entryDy=0;entryPerimeter=0;" edge="1" parent="1" source="NXCyin19oetwv0ha5H-7-79" target="NXCyin19oetwv0ha5H-7-77">
          <mxGeometry relative="1" as="geometry" />
        </mxCell>
        <mxCell id="NXCyin19oetwv0ha5H-7-79" value="Tener" style="rounded=0;whiteSpace=wrap;html=1;align=center;fontStyle=1;shape=rhombus;perimeter=rhombusPerimeter;" vertex="1" parent="1">
          <mxGeometry x="320" y="720" width="90" height="90" as="geometry" />
        </mxCell>
        <mxCell id="NXCyin19oetwv0ha5H-7-80" value="1,n" style="text;html=1;strokeColor=none;fillColor=none;align=center;verticalAlign=middle;whiteSpace=wrap;rounded=0;" vertex="1" parent="1">
          <mxGeometry x="270" y="720" width="60" height="30" as="geometry" />
        </mxCell>
        <mxCell id="NXCyin19oetwv0ha5H-7-81" value="1,m" style="text;html=1;strokeColor=none;fillColor=none;align=center;verticalAlign=middle;whiteSpace=wrap;rounded=0;" vertex="1" parent="1">
          <mxGeometry x="400" y="720" width="60" height="30" as="geometry" />
        </mxCell>
        <mxCell id="NXCyin19oetwv0ha5H-7-82" value="n,m" style="text;html=1;strokeColor=none;fillColor=none;align=center;verticalAlign=middle;whiteSpace=wrap;rounded=0;" vertex="1" parent="1">
          <mxGeometry x="335" y="690" width="60" height="30" as="geometry" />
        </mxCell>
        <mxCell id="NXCyin19oetwv0ha5H-7-83" value="6" style="rounded=0;whiteSpace=wrap;html=1;" vertex="1" parent="1">
          <mxGeometry x="150" y="820" width="20" height="20" as="geometry" />
        </mxCell>
        <mxCell id="NXCyin19oetwv0ha5H-7-84" style="edgeStyle=orthogonalEdgeStyle;rounded=0;orthogonalLoop=1;jettySize=auto;html=1;exitX=1;exitY=0.5;exitDx=0;exitDy=0;entryX=0;entryY=0.5;entryDx=0;entryDy=0;" edge="1" parent="1" source="NXCyin19oetwv0ha5H-7-85" target="NXCyin19oetwv0ha5H-7-88">
          <mxGeometry relative="1" as="geometry" />
        </mxCell>
        <mxCell id="NXCyin19oetwv0ha5H-7-85" value="Pedidos" style="rounded=0;whiteSpace=wrap;html=1;align=center;fontStyle=1" vertex="1" parent="1">
          <mxGeometry x="180" y="870" width="90" height="30" as="geometry" />
        </mxCell>
        <mxCell id="NXCyin19oetwv0ha5H-7-86" value="Repartdor" style="rounded=0;whiteSpace=wrap;html=1;align=center;fontStyle=1" vertex="1" parent="1">
          <mxGeometry x="460" y="870" width="90" height="30" as="geometry" />
        </mxCell>
        <mxCell id="NXCyin19oetwv0ha5H-7-87" style="edgeStyle=orthogonalEdgeStyle;rounded=0;orthogonalLoop=1;jettySize=auto;html=1;exitX=1;exitY=0.5;exitDx=0;exitDy=0;entryX=0;entryY=0.5;entryDx=0;entryDy=0;entryPerimeter=0;" edge="1" parent="1" source="NXCyin19oetwv0ha5H-7-88" target="NXCyin19oetwv0ha5H-7-86">
          <mxGeometry relative="1" as="geometry" />
        </mxCell>
        <mxCell id="NXCyin19oetwv0ha5H-7-88" value="Repartir" style="rounded=0;whiteSpace=wrap;html=1;align=center;fontStyle=1;shape=rhombus;perimeter=rhombusPerimeter;" vertex="1" parent="1">
          <mxGeometry x="320" y="840" width="90" height="90" as="geometry" />
        </mxCell>
        <mxCell id="NXCyin19oetwv0ha5H-7-89" value="1,1" style="text;html=1;strokeColor=none;fillColor=none;align=center;verticalAlign=middle;whiteSpace=wrap;rounded=0;" vertex="1" parent="1">
          <mxGeometry x="270" y="840" width="60" height="30" as="geometry" />
        </mxCell>
        <mxCell id="NXCyin19oetwv0ha5H-7-90" value="1,m" style="text;html=1;strokeColor=none;fillColor=none;align=center;verticalAlign=middle;whiteSpace=wrap;rounded=0;" vertex="1" parent="1">
          <mxGeometry x="400" y="840" width="60" height="30" as="geometry" />
        </mxCell>
        <mxCell id="NXCyin19oetwv0ha5H-7-91" value="1,m" style="text;html=1;strokeColor=none;fillColor=none;align=center;verticalAlign=middle;whiteSpace=wrap;rounded=0;" vertex="1" parent="1">
          <mxGeometry x="335" y="810" width="60" height="30" as="geometry" />
        </mxCell>
        <mxCell id="NXCyin19oetwv0ha5H-7-92" value="7" style="rounded=0;whiteSpace=wrap;html=1;" vertex="1" parent="1">
          <mxGeometry x="150" y="940" width="20" height="20" as="geometry" />
        </mxCell>
        <mxCell id="NXCyin19oetwv0ha5H-7-93" style="edgeStyle=orthogonalEdgeStyle;rounded=0;orthogonalLoop=1;jettySize=auto;html=1;exitX=1;exitY=0.5;exitDx=0;exitDy=0;entryX=0;entryY=0.5;entryDx=0;entryDy=0;" edge="1" parent="1" source="NXCyin19oetwv0ha5H-7-94" target="NXCyin19oetwv0ha5H-7-97">
          <mxGeometry relative="1" as="geometry" />
        </mxCell>
        <mxCell id="NXCyin19oetwv0ha5H-7-94" value="Cliente" style="rounded=0;whiteSpace=wrap;html=1;align=center;fontStyle=1" vertex="1" parent="1">
          <mxGeometry x="180" y="990" width="90" height="30" as="geometry" />
        </mxCell>
        <mxCell id="NXCyin19oetwv0ha5H-7-95" value="Pedido" style="rounded=0;whiteSpace=wrap;html=1;align=center;fontStyle=1" vertex="1" parent="1">
          <mxGeometry x="460" y="990" width="90" height="30" as="geometry" />
        </mxCell>
        <mxCell id="NXCyin19oetwv0ha5H-7-96" style="edgeStyle=orthogonalEdgeStyle;rounded=0;orthogonalLoop=1;jettySize=auto;html=1;exitX=1;exitY=0.5;exitDx=0;exitDy=0;entryX=0;entryY=0.5;entryDx=0;entryDy=0;entryPerimeter=0;" edge="1" parent="1" source="NXCyin19oetwv0ha5H-7-97" target="NXCyin19oetwv0ha5H-7-95">
          <mxGeometry relative="1" as="geometry" />
        </mxCell>
        <mxCell id="NXCyin19oetwv0ha5H-7-97" value="Realizar" style="rounded=0;whiteSpace=wrap;html=1;align=center;fontStyle=1;shape=rhombus;perimeter=rhombusPerimeter;" vertex="1" parent="1">
          <mxGeometry x="320" y="960" width="90" height="90" as="geometry" />
        </mxCell>
        <mxCell id="NXCyin19oetwv0ha5H-7-98" value="1,n" style="text;html=1;strokeColor=none;fillColor=none;align=center;verticalAlign=middle;whiteSpace=wrap;rounded=0;" vertex="1" parent="1">
          <mxGeometry x="270" y="960" width="60" height="30" as="geometry" />
        </mxCell>
        <mxCell id="NXCyin19oetwv0ha5H-7-99" value="1,1" style="text;html=1;strokeColor=none;fillColor=none;align=center;verticalAlign=middle;whiteSpace=wrap;rounded=0;" vertex="1" parent="1">
          <mxGeometry x="400" y="960" width="60" height="30" as="geometry" />
        </mxCell>
        <mxCell id="NXCyin19oetwv0ha5H-7-100" value="n,1" style="text;html=1;strokeColor=none;fillColor=none;align=center;verticalAlign=middle;whiteSpace=wrap;rounded=0;" vertex="1" parent="1">
          <mxGeometry x="335" y="930" width="60" height="30" as="geometry" />
        </mxCell>
        <mxCell id="NXCyin19oetwv0ha5H-7-101" value="8" style="rounded=0;whiteSpace=wrap;html=1;" vertex="1" parent="1">
          <mxGeometry x="150" y="1060" width="20" height="20" as="geometry" />
        </mxCell>
        <mxCell id="NXCyin19oetwv0ha5H-7-102" style="edgeStyle=orthogonalEdgeStyle;rounded=0;orthogonalLoop=1;jettySize=auto;html=1;exitX=1;exitY=0.5;exitDx=0;exitDy=0;entryX=0;entryY=0.5;entryDx=0;entryDy=0;" edge="1" parent="1" source="NXCyin19oetwv0ha5H-7-103" target="NXCyin19oetwv0ha5H-7-106">
          <mxGeometry relative="1" as="geometry" />
        </mxCell>
        <mxCell id="NXCyin19oetwv0ha5H-7-103" value="Propietario" style="rounded=0;whiteSpace=wrap;html=1;align=center;fontStyle=1" vertex="1" parent="1">
          <mxGeometry x="180" y="1110" width="90" height="30" as="geometry" />
        </mxCell>
        <mxCell id="NXCyin19oetwv0ha5H-7-104" value="Vivienda" style="rounded=0;whiteSpace=wrap;html=1;align=center;fontStyle=1" vertex="1" parent="1">
          <mxGeometry x="460" y="1110" width="90" height="30" as="geometry" />
        </mxCell>
        <mxCell id="NXCyin19oetwv0ha5H-7-105" style="edgeStyle=orthogonalEdgeStyle;rounded=0;orthogonalLoop=1;jettySize=auto;html=1;exitX=1;exitY=0.5;exitDx=0;exitDy=0;entryX=0;entryY=0.5;entryDx=0;entryDy=0;entryPerimeter=0;" edge="1" parent="1" source="NXCyin19oetwv0ha5H-7-106" target="NXCyin19oetwv0ha5H-7-104">
          <mxGeometry relative="1" as="geometry" />
        </mxCell>
        <mxCell id="NXCyin19oetwv0ha5H-7-106" value="Tener" style="rounded=0;whiteSpace=wrap;html=1;align=center;fontStyle=1;shape=rhombus;perimeter=rhombusPerimeter;" vertex="1" parent="1">
          <mxGeometry x="320" y="1080" width="90" height="90" as="geometry" />
        </mxCell>
        <mxCell id="NXCyin19oetwv0ha5H-7-107" value="1,n" style="text;html=1;strokeColor=none;fillColor=none;align=center;verticalAlign=middle;whiteSpace=wrap;rounded=0;" vertex="1" parent="1">
          <mxGeometry x="400" y="1080" width="60" height="30" as="geometry" />
        </mxCell>
        <mxCell id="NXCyin19oetwv0ha5H-7-108" value="1,1" style="text;html=1;strokeColor=none;fillColor=none;align=center;verticalAlign=middle;whiteSpace=wrap;rounded=0;" vertex="1" parent="1">
          <mxGeometry x="270" y="1080" width="60" height="30" as="geometry" />
        </mxCell>
        <mxCell id="NXCyin19oetwv0ha5H-7-109" value="1,n" style="text;html=1;strokeColor=none;fillColor=none;align=center;verticalAlign=middle;whiteSpace=wrap;rounded=0;" vertex="1" parent="1">
          <mxGeometry x="335" y="1050" width="60" height="30" as="geometry" />
        </mxCell>
        <mxCell id="NXCyin19oetwv0ha5H-7-110" value="9" style="rounded=0;whiteSpace=wrap;html=1;" vertex="1" parent="1">
          <mxGeometry x="150" y="1170" width="20" height="20" as="geometry" />
        </mxCell>
        <mxCell id="NXCyin19oetwv0ha5H-7-111" style="edgeStyle=orthogonalEdgeStyle;rounded=0;orthogonalLoop=1;jettySize=auto;html=1;exitX=1;exitY=0.5;exitDx=0;exitDy=0;entryX=0;entryY=0.5;entryDx=0;entryDy=0;" edge="1" parent="1" source="NXCyin19oetwv0ha5H-7-112" target="NXCyin19oetwv0ha5H-7-115">
          <mxGeometry relative="1" as="geometry" />
        </mxCell>
        <mxCell id="NXCyin19oetwv0ha5H-7-112" value="vivienda" style="rounded=0;whiteSpace=wrap;html=1;align=center;fontStyle=1" vertex="1" parent="1">
          <mxGeometry x="180" y="1220" width="90" height="30" as="geometry" />
        </mxCell>
        <mxCell id="NXCyin19oetwv0ha5H-7-113" value="contratos" style="rounded=0;whiteSpace=wrap;html=1;align=center;fontStyle=1" vertex="1" parent="1">
          <mxGeometry x="460" y="1220" width="90" height="30" as="geometry" />
        </mxCell>
        <mxCell id="NXCyin19oetwv0ha5H-7-114" style="edgeStyle=orthogonalEdgeStyle;rounded=0;orthogonalLoop=1;jettySize=auto;html=1;exitX=1;exitY=0.5;exitDx=0;exitDy=0;entryX=0;entryY=0.5;entryDx=0;entryDy=0;entryPerimeter=0;" edge="1" parent="1" source="NXCyin19oetwv0ha5H-7-115" target="NXCyin19oetwv0ha5H-7-113">
          <mxGeometry relative="1" as="geometry" />
        </mxCell>
        <mxCell id="NXCyin19oetwv0ha5H-7-115" value="Tener" style="rounded=0;whiteSpace=wrap;html=1;align=center;fontStyle=1;shape=rhombus;perimeter=rhombusPerimeter;" vertex="1" parent="1">
          <mxGeometry x="320" y="1190" width="90" height="90" as="geometry" />
        </mxCell>
        <mxCell id="NXCyin19oetwv0ha5H-7-116" value="1,n" style="text;html=1;strokeColor=none;fillColor=none;align=center;verticalAlign=middle;whiteSpace=wrap;rounded=0;" vertex="1" parent="1">
          <mxGeometry x="400" y="1190" width="60" height="30" as="geometry" />
        </mxCell>
        <mxCell id="NXCyin19oetwv0ha5H-7-117" value="1,1" style="text;html=1;strokeColor=none;fillColor=none;align=center;verticalAlign=middle;whiteSpace=wrap;rounded=0;" vertex="1" parent="1">
          <mxGeometry x="270" y="1190" width="60" height="30" as="geometry" />
        </mxCell>
        <mxCell id="NXCyin19oetwv0ha5H-7-118" value="1,n" style="text;html=1;strokeColor=none;fillColor=none;align=center;verticalAlign=middle;whiteSpace=wrap;rounded=0;" vertex="1" parent="1">
          <mxGeometry x="335" y="1160" width="60" height="30" as="geometry" />
        </mxCell>
        <mxCell id="NXCyin19oetwv0ha5H-7-128" value="10" style="rounded=0;whiteSpace=wrap;html=1;" vertex="1" parent="1">
          <mxGeometry x="150" y="1290" width="20" height="20" as="geometry" />
        </mxCell>
        <mxCell id="NXCyin19oetwv0ha5H-7-129" style="edgeStyle=orthogonalEdgeStyle;rounded=0;orthogonalLoop=1;jettySize=auto;html=1;exitX=1;exitY=0.5;exitDx=0;exitDy=0;entryX=0;entryY=0.5;entryDx=0;entryDy=0;" edge="1" parent="1" source="NXCyin19oetwv0ha5H-7-130" target="NXCyin19oetwv0ha5H-7-133">
          <mxGeometry relative="1" as="geometry" />
        </mxCell>
        <mxCell id="NXCyin19oetwv0ha5H-7-130" value="inquilino" style="rounded=0;whiteSpace=wrap;html=1;align=center;fontStyle=1" vertex="1" parent="1">
          <mxGeometry x="180" y="1340" width="90" height="30" as="geometry" />
        </mxCell>
        <mxCell id="NXCyin19oetwv0ha5H-7-131" value="contratos" style="rounded=0;whiteSpace=wrap;html=1;align=center;fontStyle=1" vertex="1" parent="1">
          <mxGeometry x="460" y="1340" width="90" height="30" as="geometry" />
        </mxCell>
        <mxCell id="NXCyin19oetwv0ha5H-7-132" style="edgeStyle=orthogonalEdgeStyle;rounded=0;orthogonalLoop=1;jettySize=auto;html=1;exitX=1;exitY=0.5;exitDx=0;exitDy=0;entryX=0;entryY=0.5;entryDx=0;entryDy=0;entryPerimeter=0;" edge="1" parent="1" source="NXCyin19oetwv0ha5H-7-133" target="NXCyin19oetwv0ha5H-7-131">
          <mxGeometry relative="1" as="geometry" />
        </mxCell>
        <mxCell id="NXCyin19oetwv0ha5H-7-133" value="Realizar" style="rounded=0;whiteSpace=wrap;html=1;align=center;fontStyle=1;shape=rhombus;perimeter=rhombusPerimeter;" vertex="1" parent="1">
          <mxGeometry x="320" y="1310" width="90" height="90" as="geometry" />
        </mxCell>
        <mxCell id="NXCyin19oetwv0ha5H-7-134" value="1,n" style="text;html=1;strokeColor=none;fillColor=none;align=center;verticalAlign=middle;whiteSpace=wrap;rounded=0;" vertex="1" parent="1">
          <mxGeometry x="400" y="1310" width="60" height="30" as="geometry" />
        </mxCell>
        <mxCell id="NXCyin19oetwv0ha5H-7-135" value="1,1" style="text;html=1;strokeColor=none;fillColor=none;align=center;verticalAlign=middle;whiteSpace=wrap;rounded=0;" vertex="1" parent="1">
          <mxGeometry x="270" y="1310" width="60" height="30" as="geometry" />
        </mxCell>
        <mxCell id="NXCyin19oetwv0ha5H-7-136" value="1,n" style="text;html=1;strokeColor=none;fillColor=none;align=center;verticalAlign=middle;whiteSpace=wrap;rounded=0;" vertex="1" parent="1">
          <mxGeometry x="335" y="1280" width="60" height="30" as="geometry" />
        </mxCell>
      </root>
    </mxGraphModel>
  </diagram>
</mxfile>
